<svg width="64" height="78" viewBox="0 0 64 78" fill="none" xmlns="http://www.w3.org/2000/svg">
<path d="M37.7301 18.0113C37.7301 21.7513 37.5401 25.5013 37.8001 29.2113C37.9701 31.6113 36.7701 32.7413 34.9801 33.6813C32.8501 34.8113 30.7501 36.0013 28.7201 37.3113C28.5601 37.4113 28.4101 37.5213 28.2401 37.6113C26.5001 38.5413 25.5601 38.0413 25.5301 36.0613C25.4801 32.7813 25.5201 29.4913 25.5101 26.2113C25.5101 24.5413 25.3101 24.4313 23.8801 25.2413C22.1101 26.2513 20.3401 27.2513 18.5701 28.2513C17.5701 28.8113 17.1201 29.5413 17.0801 30.7813C16.8201 39.1913 16.9301 47.6013 16.9101 56.0113C16.9101 58.1213 17.2401 58.4013 19.3701 58.2713C19.8101 58.2413 20.2801 58.3213 20.7101 58.4213C21.7501 58.6813 22.0801 59.3013 21.5501 60.2613C20.0101 63.0213 18.3901 65.7413 16.8201 68.4813C15.4101 70.9313 14.0001 73.3813 12.6001 75.8413C12.1901 76.5613 11.7801 77.5213 10.9101 77.4913C10.0201 77.4713 9.54012 76.5313 9.10013 75.7913C7.10013 72.4713 5.26013 69.0713 3.29013 65.7413C2.21012 63.9213 0.880125 62.2013 0.170125 60.1413C-0.209875 59.0513 0.0201253 58.5613 1.13013 58.4013C1.88013 58.3013 2.63013 58.2013 3.38013 58.1713C4.19013 58.1313 4.58013 57.7713 4.72013 56.9513C5.06013 54.8413 4.96013 52.7213 4.87013 50.6213C4.78013 48.5513 4.78013 46.4913 4.87013 44.4213C4.97013 42.2413 4.73012 40.0513 4.71012 37.8713C4.68012 34.0313 4.72013 30.1813 4.69012 26.3413C4.68012 25.1313 4.86013 23.9313 4.95013 22.7313C5.04013 21.5213 5.99013 20.9213 6.91013 20.4213C9.92013 18.7813 12.8901 17.1013 15.8401 15.3613C19.0101 13.4913 22.2401 11.6913 25.4301 9.84131C28.4201 8.11131 31.4101 6.36131 34.4001 4.62131C34.6301 4.49131 34.8601 4.36131 35.1001 4.24131C36.9801 3.30131 37.7601 3.78131 37.7601 5.87131C37.7401 9.94131 37.7401 13.9813 37.7301 18.0113C37.7401 18.0113 37.7401 18.0113 37.7301 18.0113Z" fill="#D7301E"/>
<path d="M58.34 37.5013C58.34 43.0113 58.32 48.5213 58.36 54.0213C58.37 55.1313 58 55.7813 57 56.3513C49.8 60.4613 42.67 64.6813 35.47 68.7913C33.08 70.1513 30.67 71.4713 28.32 72.8913C26.55 73.9513 25.76 73.5413 25.75 71.4313C25.72 65.7713 25.74 60.1113 25.74 54.4513C25.74 52.2613 25.85 50.0713 25.71 47.8913C25.56 45.7313 26.65 44.7813 28.42 43.9313C30.43 42.9713 32.3 41.7813 34.25 40.7113C34.68 40.4813 35.1 40.2313 35.55 40.0313C37.12 39.3113 37.76 39.7113 37.63 41.4413C37.44 43.9713 37.6 46.4913 37.52 49.0213C37.49 50.0413 37.65 51.0513 37.73 52.0613C37.8 52.9213 38.24 53.0113 38.87 52.6813C39.63 52.2813 40.36 51.7913 41.1 51.3513C42.59 50.4713 44.08 49.6013 45.58 48.7213C46.07 48.4313 46.3 48.0013 46.38 47.4313C46.49 46.6413 46.58 45.8613 46.58 45.0713C46.57 37.9813 46.57 30.8813 46.59 23.7913C46.59 22.5813 46.47 21.3813 46.36 20.1813C46.29 19.4013 45.9 19.0213 45.13 19.0013C44.38 18.9813 43.62 19.0213 42.87 18.9513C41.84 18.8413 41.54 18.2513 41.96 17.3113C43.28 14.3413 45.22 11.7213 46.67 8.83131C47.96 6.27131 49.61 3.93131 51.05 1.46131C51.24 1.13131 51.4 0.781309 51.65 0.501309C52.21 -0.158691 52.84 -0.198691 53.31 0.571309C54.99 3.34131 56.65 6.12131 58.28 8.92131C59.69 11.3213 61.05 13.7513 62.43 16.1613C62.5 16.2913 62.61 16.4113 62.67 16.5413C62.95 17.1513 63.48 17.7513 63.14 18.4413C62.77 19.2013 61.96 18.9613 61.31 18.9713C58.36 18.9913 58.36 18.9813 58.36 21.9613C58.35 27.1613 58.34 32.3313 58.34 37.5013Z" fill="#359E3F"/>
</svg>
