<svg width="58" height="57" viewBox="0 0 58 57" fill="none" xmlns="http://www.w3.org/2000/svg">
<path d="M3.76696 50.637H2.79646C1.72625 50.637 0.855469 51.5108 0.855469 52.5846V54.5322C0.855469 55.606 1.72625 56.4797 2.79646 56.4797H3.76696C4.30207 56.4797 4.73746 56.0429 4.73746 55.506V51.6108C4.73746 51.0739 4.30207 50.637 3.76696 50.637Z" fill="white"/>
<path d="M11.5308 51.6108C11.5308 52.1477 11.9662 52.5845 12.5013 52.5845C13.0364 52.5845 13.4718 52.1477 13.4718 51.6108V46.7418H11.5308V51.6108Z" fill="white"/>
<path d="M12.5015 40.899V44.7942H15.7958C17.6937 44.7942 19.5461 45.2214 21.2359 46.0403V39.6528C19.5459 40.4718 17.6937 40.899 15.7958 40.899H12.5015Z" fill="white"/>
<path d="M8.61914 42.8467C8.61914 43.9205 9.48992 44.7943 10.5601 44.7943V40.8991C9.48992 40.8991 8.61914 41.7728 8.61914 42.8467Z" fill="white"/>
<path d="M18.0227 26.1772L16.0307 26.577C12.6282 27.2599 9.91174 29.8197 8.97363 33.1088H19.2787L18.0227 26.1772Z" fill="white"/>
<path d="M26.0886 21.4233C31.975 21.4233 36.764 16.618 36.764 10.7117C36.764 4.80528 31.975 0 26.0886 0C20.2021 0 15.4131 4.80528 15.4131 10.7117C15.4131 16.618 20.2021 21.4233 26.0886 21.4233ZM26.0886 1.94757C30.9048 1.94757 34.823 5.87912 34.823 10.7117C34.823 15.5442 30.9048 19.4757 26.0886 19.4757C21.2723 19.4757 17.3541 15.5442 17.3541 10.7117C17.3541 5.87912 21.2723 1.94757 26.0886 1.94757Z" fill="white"/>
<path d="M32.8975 33.1088H43.2026C42.2645 29.8197 39.548 27.2599 36.1455 26.577L34.1535 26.1772L32.8975 33.1088Z" fill="white"/>
<path d="M26.0884 17.5282C29.8403 17.5282 32.8819 14.4764 32.8819 10.7117C32.8819 6.94706 29.8403 3.8952 26.0884 3.8952C22.3365 3.8952 19.2949 6.94706 19.2949 10.7117C19.2949 14.4764 22.3365 17.5282 26.0884 17.5282Z" fill="white"/>
<path d="M28.9997 23.9414V23.0301C28.0648 23.2526 27.09 23.3709 26.0883 23.3709C25.0865 23.3709 24.1117 23.2525 23.1768 23.0301V23.9414L26.0883 26.8628L28.9997 23.9414Z" fill="white"/>
<path d="M19.9263 25.7953L20.9222 31.2917L24.6504 28.1744L21.8872 25.4018L19.9263 25.7953Z" fill="white"/>
<path d="M32.25 25.7953L30.2891 25.4018L27.5259 28.1744L31.254 31.2917L32.25 25.7953Z" fill="white"/>
<path d="M47.4395 48.8569V35.0564H29.9706C28.3653 35.0564 27.0591 36.367 27.0591 37.9778V56.4797H45.6655C45.5577 56.1749 45.4985 55.8474 45.4985 55.5059V51.6108C45.4985 50.3413 46.31 49.259 47.4395 48.8569ZM43.5575 54.5321H29.0001V52.5846H43.5575V54.5321ZM43.5575 50.637H29.0001V48.6894H43.5575V50.637ZM43.5575 46.7418H29.0001V44.7943H43.5575V46.7418ZM29.0001 42.8467V37.004H45.4985V42.8467H29.0001Z" fill="white"/>
<path d="M49.3804 50.637H48.41C47.8748 50.637 47.4395 51.0739 47.4395 51.6108V55.506C47.4395 56.0429 47.8748 56.4797 48.41 56.4797H49.3804C50.4507 56.4797 51.3214 55.606 51.3214 54.5322V52.5846C51.3214 51.5108 50.4507 50.637 49.3804 50.637Z" fill="white"/>
<path d="M55.2035 8.76416H38.5557C38.6538 9.39919 38.705 10.0496 38.705 10.7117C38.705 11.3739 38.6538 12.0243 38.5557 12.6593H55.2035C56.2737 12.6593 57.1445 11.7856 57.1445 10.7117C57.1445 9.63789 56.2737 8.76416 55.2035 8.76416Z" fill="white"/>
<path d="M43.5574 38.9515H30.9409V40.8991H43.5574V38.9515Z" fill="white"/>
<path d="M22.2063 35.0564H4.7373V48.8569C5.86684 49.259 6.6783 50.3413 6.6783 51.6108V55.5059C6.6783 55.8474 6.6191 56.1749 6.51137 56.4797H25.1178V37.9778C25.1178 36.367 23.8116 35.0564 22.2063 35.0564ZM23.1768 49.5352L21.6679 48.5258C19.9232 47.3587 17.8925 46.7418 15.7956 46.7418H15.4128V51.6108C15.4128 53.2215 14.1066 54.5321 12.5013 54.5321C10.896 54.5321 9.58979 53.2215 9.58979 51.6108V46.6185C7.91738 46.1851 6.6783 44.6583 6.6783 42.8467C6.6783 40.6989 8.41974 38.9515 10.5603 38.9515H15.7956C17.8925 38.9515 19.9232 38.3347 21.668 37.1676L23.1768 36.1582V49.5352Z" fill="white"/>
<path d="M30.3954 33.1088L26.0883 29.5075L21.7812 33.1088H22.2063C23.792 33.1088 25.2023 33.876 26.0883 35.0598C26.9744 33.876 28.3846 33.1088 29.9703 33.1088H30.3954Z" fill="white"/>
</svg>
