<svg width="60" height="57" viewBox="0 0 60 57" fill="none" xmlns="http://www.w3.org/2000/svg">
<path d="M16.9971 12.248C16.7116 12.9533 16.0234 13.4131 15.261 13.4045H13.2878C12.868 13.4045 12.5282 13.7471 12.5282 14.1669V20.9146C12.5282 21.066 12.4711 21.2116 12.3626 21.3201C12.254 21.4286 12.1084 21.4858 11.9571 21.4858H5.48348C5.16936 21.4858 4.91237 21.2288 4.91237 20.9146V14.1212C4.91237 13.9185 4.83241 13.7243 4.68963 13.5815C4.54685 13.4388 4.35267 13.3588 4.14993 13.3588H2.23099C1.48001 13.3531 0.806079 12.8991 0.517617 12.2052C0.229206 11.5141 0.38055 10.7145 0.905974 10.1777L7.41662 3.65848C8.1619 2.9503 9.32986 2.9503 10.0751 3.65848L16.5858 10.1777C17.1426 10.7146 17.3055 11.5398 16.9971 12.248ZM59.3278 0.277468C59.0051 0.0119014 58.5682 -0.0709088 58.1713 0.0632999L50.1674 3.05597C49.7505 3.20731 49.4506 3.57282 49.3878 4.00973C49.3221 4.44949 49.502 4.88638 49.8561 5.15196L51.1268 6.15712C51.1326 6.17425 51.1326 6.19138 51.1268 6.20852L40.2901 19.6184C39.8847 20.1267 39.1422 20.2124 38.6311 19.8097L35.7212 17.5253C35.2301 17.1398 34.6048 16.9685 33.9851 17.0456C33.3654 17.1198 32.8 17.4425 32.4259 17.9451L22.5257 30.8382V30.8353C22.2316 31.2065 22.1802 31.7148 22.3943 32.1374C22.6056 32.56 23.0425 32.8227 23.5166 32.8085C23.7936 32.8027 24.062 32.7028 24.2762 32.5258L33.5967 24.7901C34.0422 24.4303 34.6762 24.4303 35.1216 24.7901L38.6311 27.5628C39.1194 27.9512 39.7419 28.1254 40.3616 28.0511C40.9784 27.974 41.5409 27.6542 41.9207 27.1573L55.3306 9.78964C55.3563 9.76965 55.3963 9.76965 55.422 9.78964L56.4728 10.5521V10.5492C56.8098 10.7891 57.2438 10.8377 57.6236 10.6835C58.0063 10.5293 58.2832 10.1923 58.3603 9.78963L59.7538 1.47423C59.848 1.02591 59.6819 0.565857 59.3278 0.277468ZM22.9967 13.3672C22.9938 13.0531 22.7397 12.7989 22.4255 12.7961H19.1674C18.8533 12.7961 18.5963 13.0531 18.5963 13.3672C18.5963 13.6813 18.8533 13.9383 19.1674 13.9383H22.4255C22.7425 13.9383 22.9967 13.6813 22.9967 13.3672ZM28.6164 13.3672C28.6164 13.0531 28.3623 12.7961 28.0453 12.7961H24.7957C24.4787 12.7961 24.2246 13.0531 24.2246 13.3672C24.2246 13.6813 24.4787 13.9383 24.7957 13.9383H28.0481H28.0453C28.1995 13.9412 28.3451 13.8812 28.4536 13.7727C28.5593 13.667 28.6193 13.5185 28.6164 13.3672ZM34.2447 13.3672C34.2447 13.0531 33.9877 12.7961 33.6736 12.7961H30.4154C30.0985 12.7961 29.8443 13.0531 29.8443 13.3672C29.8443 13.6813 30.0985 13.9383 30.4154 13.9383H33.6736C33.8249 13.9412 33.9734 13.8812 34.0791 13.7727C34.1876 13.667 34.2476 13.5185 34.2447 13.3672ZM39.873 13.3672C39.8673 13.0531 39.616 12.7989 39.3019 12.7961H36.0409C35.7268 12.7961 35.4698 13.0531 35.4698 13.3672C35.4698 13.6813 35.7268 13.9383 36.0409 13.9383H39.3019C39.4561 13.944 39.6074 13.8869 39.7188 13.7784C39.833 13.6727 39.8959 13.5214 39.8959 13.3672H39.873ZM55.0418 38.6328V35.3804C55.0418 35.0662 54.7848 34.8092 54.4706 34.8092C54.1537 34.8092 53.8995 35.0662 53.8995 35.3804V38.6328C53.8995 38.9469 54.1537 39.2039 54.4706 39.2039C54.7848 39.2039 55.0418 38.9469 55.0418 38.6328ZM55.0418 33.0131V29.7606C55.0418 29.4465 54.7848 29.1895 54.4706 29.1895C54.1537 29.1895 53.8995 29.4465 53.8995 29.7606V33.0216C53.8995 33.3358 54.1537 33.5928 54.4706 33.5928C54.7848 33.5928 55.0418 33.3358 55.0418 33.0216V33.0131ZM55.0418 27.3848V24.1266C55.0418 23.8125 54.7848 23.5555 54.4706 23.5555C54.1537 23.5555 53.8995 23.8125 53.8995 24.1266V27.3848C53.8995 27.7018 54.1537 27.9559 54.4706 27.9559C54.7848 27.9559 55.0418 27.7018 55.0418 27.3848ZM55.0418 21.7565V18.4983C55.0418 18.1842 54.7848 17.9272 54.4706 17.9272C54.1537 17.9272 53.8995 18.1842 53.8995 18.4983V21.7593C53.8995 22.0735 54.1537 22.3305 54.4706 22.3305C54.7848 22.3305 55.0418 22.0735 55.0418 21.7593V21.7565ZM11.2256 23.7525H6.26842V27.7874H11.2256V23.7525ZM15.0321 42.0282H12.3679V46.637C12.3622 46.9511 12.1109 47.2024 11.7967 47.2081H5.70301C5.38889 47.2081 5.13189 46.9511 5.13189 46.637V42.0453H2.44479C1.8537 42.0453 1.28831 42.2795 0.871411 42.6964C0.4545 43.1133 0.220347 43.6787 0.220347 44.2669V54.2498C0.220347 55.4777 1.21695 56.4743 2.44485 56.4743H15.0404C16.2683 56.4743 17.2678 55.4805 17.2706 54.2498V44.2669C17.2677 43.039 16.2683 42.0453 15.0404 42.0453L15.0321 42.0282ZM30.1007 42.0282H25.152V46.063H30.1092L30.1007 42.0282ZM48.9845 42.0282H44.0358V46.063L49.033 46.0659L48.9845 42.0282ZM33.9217 42.0282H31.2518V46.637C31.249 46.9511 30.9948 47.2024 30.6807 47.2081H24.5898C24.2757 47.2024 24.0216 46.9511 24.0187 46.637V42.0453H21.3373C20.1094 42.0453 19.11 43.0391 19.1071 44.267V54.2499C19.11 55.4806 20.1094 56.4744 21.3373 56.4744H33.9329C34.5211 56.4744 35.0865 56.2402 35.5034 55.8233C35.9203 55.4064 36.1544 54.8409 36.1544 54.2499V44.267C36.1544 43.6788 35.9203 43.1134 35.5034 42.6965C35.0865 42.2796 34.521 42.0454 33.9329 42.0454L33.9217 42.0282ZM52.8056 42.0282H50.1356V46.637C50.1356 46.9511 49.8815 47.2081 49.5645 47.2081H43.4736C43.1595 47.2024 42.9054 46.9511 42.9025 46.637V42.0453H40.2211C38.9932 42.0453 37.9995 43.0391 37.9995 44.267V54.2499C37.9995 55.4778 38.9932 56.4744 40.2211 56.4744H52.8401C53.4312 56.4744 53.9965 56.2402 54.4134 55.8233C54.8304 55.4064 55.0645 54.8409 55.0645 54.2499V44.267C55.0645 43.6788 54.8304 43.1134 54.4134 42.6965C53.9965 42.2796 53.4311 42.0454 52.8401 42.0454L52.8056 42.0282ZM15.0292 23.7525H12.3678V28.3214C12.3621 28.6356 12.1108 28.8897 11.7967 28.8926H5.70293C5.38882 28.8926 5.13182 28.6384 5.13182 28.3214V23.7525H2.44472C1.22537 23.7525 0.234543 24.7349 0.220215 25.9542V35.9604C0.220215 37.1883 1.21682 38.1849 2.44472 38.1849H15.0403C16.2682 38.1849 17.2676 37.1883 17.2705 35.9604V25.9542C17.2533 24.7348 16.2596 23.7525 15.0403 23.7525H15.0292ZM11.2227 42.0282H6.26834V46.063H11.2256L11.2227 42.0282Z" fill="white"/>
</svg>
