<svg width="74" height="57" viewBox="0 0 74 57" fill="none" xmlns="http://www.w3.org/2000/svg">
<path d="M54.0737 49.8128C53.9216 48.596 52.4766 47.9116 51.488 48.6721C47.3052 51.7141 42.2098 53.3111 36.9624 53.3111C31.7149 53.3111 26.6956 51.7141 22.5129 48.6721C21.5242 47.9116 20.0793 48.596 19.9272 49.8128C19.8511 50.4212 20.1553 51.0296 20.6116 51.3338C25.4028 54.7561 31.0305 56.5813 36.9624 56.5813C42.8943 56.5813 48.5981 54.7561 53.3892 51.3338C53.8455 50.9536 54.1497 50.4212 54.0737 49.8128Z" fill="white"/>
<path d="M20.3834 7.22476C20.8397 8.06131 21.9804 8.28946 22.7409 7.75711C26.9237 4.86721 31.867 3.27015 36.9623 3.27015C42.0577 3.27015 47.0009 4.86721 51.1837 7.75711C51.9442 8.28946 53.0849 8.06131 53.5412 7.22476C53.5412 7.22476 53.5412 7.22476 53.5412 7.14871C53.9975 6.38821 53.7694 5.47561 53.0849 4.94325C48.3698 1.74915 42.7421 0 36.9623 0C31.1065 0 25.6308 1.74915 20.8397 5.01931C20.1552 5.55166 19.9271 6.46426 20.3834 7.22476Z" fill="white"/>
<path d="M21.2199 33.31L20.5354 27.5302C20.0791 23.9558 17.1132 21.2941 13.5388 21.2941H8.59554C5.02119 21.2941 1.97918 23.9558 1.59893 27.5302L0.914483 33.31C0.838433 34.0705 1.29473 34.7549 2.05523 34.907C3.11994 35.1352 4.18464 35.2873 5.24934 35.4394L6.00984 48.9002C6.08589 49.9649 6.92244 50.8015 7.98714 50.8015H14.0711C15.1358 50.8015 16.0484 49.9649 16.0484 48.9002L16.809 35.4394C17.8737 35.2873 19.0144 35.1352 20.0031 34.907C20.8396 34.7549 21.2959 33.9944 21.2199 33.31Z" fill="white"/>
<path d="M11.0294 19.0886C14.6798 19.0886 17.6457 16.1227 17.6457 12.4723C17.6457 8.82185 14.6798 5.8559 11.0294 5.8559C7.37897 5.8559 4.41302 8.82185 4.41302 12.4723C4.33697 16.1227 7.37897 19.0886 11.0294 19.0886Z" fill="white"/>
<path d="M73.0861 33.31L72.4016 27.5302C71.9453 23.9558 68.9794 21.2941 65.405 21.2941H60.4618C56.8874 21.2941 53.8454 23.9558 53.4651 27.5302L52.7807 33.31C52.7046 34.0705 53.1609 34.7549 53.9214 34.907C54.9861 35.1352 56.0508 35.2873 57.1155 35.4394L57.876 48.9002C57.9521 49.9649 58.7886 50.8015 59.8533 50.8015H65.9374C67.0021 50.8015 67.9147 49.9649 67.9147 48.9002L68.6752 35.4394C69.7399 35.2873 70.8806 35.1352 71.8693 34.907C72.7058 34.7549 73.1621 33.9944 73.0861 33.31Z" fill="white"/>
<path d="M62.8952 19.0886C66.5456 19.0886 69.5115 16.1227 69.5115 12.4723C69.5115 8.82185 66.5456 5.8559 62.8952 5.8559C59.2448 5.8559 56.2788 8.82185 56.2788 12.4723C56.2788 16.1227 59.2448 19.0886 62.8952 19.0886Z" fill="white"/>
<path d="M34.3005 37.4927C30.9543 34.1465 25.4787 34.3747 25.2505 34.3747C25.0224 34.3747 24.8703 34.5268 24.8703 34.7549C24.8703 34.9831 23.5014 46.0103 37.0383 46.0103C50.5752 46.0103 49.2063 34.9831 49.2063 34.7549C49.2063 34.5268 49.0542 34.3747 48.8261 34.3747C48.5979 34.3747 43.1223 34.1465 39.7761 37.4927C39.1677 38.1011 38.7114 38.7095 38.3311 39.394V32.4734C43.8068 31.865 48.0656 27.226 48.0656 21.5982C48.0656 15.5142 43.1223 10.647 37.1143 10.647C31.0303 10.647 26.1631 15.5903 26.1631 21.5982C26.1631 27.226 30.4219 31.865 35.8975 32.4734V39.394C35.3652 38.7095 34.9089 38.0251 34.3005 37.4927ZM32.7795 24.4121C32.7795 24.26 32.9316 24.1079 33.0837 24.1079H34.7568C34.9089 24.1079 35.061 24.1839 35.061 24.336C35.137 25.0205 35.7454 25.5529 36.4299 25.5529H37.4185C38.103 25.5529 38.7874 25.0966 38.9395 24.4121C39.0916 23.4995 38.4072 22.739 37.5706 22.739H36.7341C34.8328 22.739 33.0837 21.3701 32.8555 19.3928C32.6274 17.4155 34.0723 15.6663 35.8975 15.3621V13.9172C35.8975 13.7651 36.0496 13.613 36.2017 13.613H37.8748C38.0269 13.613 38.179 13.7651 38.179 13.9172V15.3621C39.8521 15.6663 41.145 16.9592 41.2211 18.7083C41.2211 18.8604 41.069 19.0125 40.9169 19.0125H39.2437C39.0917 19.0125 39.0156 18.9365 38.9395 18.7844C38.8635 18.0999 38.2551 17.5676 37.4946 17.5676H36.5059C35.8215 17.5676 35.137 18.0239 34.9849 18.7844C34.8328 19.697 35.5173 20.4575 36.3538 20.4575H37.4185C39.5479 20.4575 41.2971 22.3587 41.069 24.4881C40.9169 26.1613 39.624 27.4541 38.0269 27.7583V29.2793C38.0269 29.4314 37.8748 29.5835 37.7227 29.5835H36.0496C35.8975 29.5835 35.7454 29.4314 35.7454 29.2793V27.8344C34.1484 27.4541 32.9316 26.0852 32.7795 24.4121Z" fill="white"/>
</svg>
